<?xml version="1.0" standalone="no"?>
<!DOCTYPE svg PUBLIC "-//W3C//DTD SVG 20010904//EN"
 "http://www.w3.org/TR/2001/REC-SVG-20010904/DTD/svg10.dtd">
<svg version="1.0" xmlns="http://www.w3.org/2000/svg"
 width="129.000000pt" height="29.000000pt" viewBox="0 0 129.000000 29.000000"
 preserveAspectRatio="xMidYMid meet">

<g transform="translate(0.000000,29.000000) scale(0.100000,-0.100000)"
fill="#000000" stroke="none">
<path d="M210 140 c-21 -16 -22 -20 -7 -20 10 0 27 5 38 10 13 7 19 7 19 0 0
-5 12 -10 26 -10 20 0 25 4 20 16 -3 9 -6 18 -6 20 0 13 -69 1 -90 -16z"/>
<path d="M342 148 c-17 -17 -15 -28 6 -28 19 0 42 18 42 32 0 12 -35 9 -48 -4z"/>
<path d="M403 141 c-12 -19 -10 -20 40 -19 46 1 77 14 77 32 0 3 -24 6 -53 6
-41 0 -55 -4 -64 -19z"/>
<path d="M536 143 c-3 -8 -6 -16 -6 -18 0 -1 25 -3 56 -3 45 0 53 2 44 13 -8
10 -7 14 7 18 10 2 -8 4 -39 5 -42 0 -58 -3 -62 -15z"/>
<path d="M670 140 c-9 -17 -8 -20 12 -20 13 0 29 9 36 20 11 18 10 20 -13 20
-14 0 -29 -8 -35 -20z"/>
<path d="M741 147 c-16 -20 -3 -27 48 -26 30 1 36 3 19 6 -40 6 -34 21 10 26
31 3 29 4 -14 5 -33 1 -56 -3 -63 -11z"/>
<path d="M866 143 c-3 -8 -6 -16 -6 -17 0 -2 25 -3 55 -3 43 0 53 3 45 13 -8
9 -6 13 7 17 10 2 -8 4 -39 5 -42 0 -58 -3 -62 -15z"/>
<path d="M1010 150 c0 -5 12 -11 28 -11 24 -2 23 -2 -8 -9 l-35 -7 45 -2 c46
-1 97 17 55 20 -17 1 -16 2 5 9 19 6 11 8 -32 9 -33 1 -58 -3 -58 -9z"/>
</g>
</svg>
