<?xml version="1.0" standalone="no"?>
<!DOCTYPE svg PUBLIC "-//W3C//DTD SVG 20010904//EN"
 "http://www.w3.org/TR/2001/REC-SVG-20010904/DTD/svg10.dtd">
<svg version="1.0" xmlns="http://www.w3.org/2000/svg"
 width="129.000000pt" height="29.000000pt" viewBox="0 0 129.000000 29.000000"
 preserveAspectRatio="xMidYMid meet">

<g transform="translate(0.000000,29.000000) scale(0.100000,-0.100000)"
fill="#000000" stroke="none">
<path d="M196 136 l-29 -24 62 1 c33 0 61 4 61 8 0 44 -49 52 -94 15z"/>
<path d="M320 151 c0 -5 -3 -17 -6 -26 -5 -13 -2 -16 16 -13 13 1 27 13 31 26
7 19 5 22 -16 22 -14 0 -25 -4 -25 -9z"/>
<path d="M380 141 c-5 -11 -10 -22 -10 -25 0 -12 38 -6 44 7 5 10 7 10 12 0 9
-19 55 -17 48 2 -4 8 -1 15 5 15 6 0 11 5 11 10 0 6 -22 10 -50 10 -38 0 -52
-4 -60 -19z"/>
<path d="M501 134 c-10 -22 -8 -24 14 -24 14 0 25 5 25 12 0 9 3 9 12 0 7 -7
23 -12 36 -12 21 0 23 2 11 16 -10 13 -10 17 0 24 8 4 -7 8 -37 8 -43 0 -51
-4 -61 -24z"/>
<path d="M632 135 c-11 -23 -10 -25 12 -25 22 0 36 16 36 41 0 20 -37 8 -48
-16z"/>
<path d="M696 144 c-3 -9 -4 -20 0 -25 7 -12 66 -11 84 2 11 8 7 9 -18 5 -24
-4 -32 -2 -30 7 3 6 20 15 39 18 30 6 28 7 -17 8 -39 1 -53 -3 -58 -15z"/>
<path d="M816 144 c-3 -9 -6 -20 -6 -25 0 -14 38 -11 43 4 4 10 7 10 18 0 7
-7 22 -13 32 -13 17 0 18 2 6 16 -10 13 -10 17 1 24 8 5 -7 8 -38 8 -36 1 -52
-3 -56 -14z"/>
<path d="M950 152 c0 -5 12 -13 28 -19 26 -11 26 -11 -7 -5 -24 4 -32 2 -27
-6 9 -15 65 -15 86 -2 12 8 11 11 -10 17 l-25 7 30 7 c24 5 20 7 -22 8 -29 0
-53 -3 -53 -7z"/>
</g>
</svg>
