<?xml version="1.0" standalone="no"?>
<!DOCTYPE svg PUBLIC "-//W3C//DTD SVG 20010904//EN"
 "http://www.w3.org/TR/2001/REC-SVG-20010904/DTD/svg10.dtd">
<svg version="1.0" xmlns="http://www.w3.org/2000/svg"
 width="166.000000pt" height="38.000000pt" viewBox="0 0 166.000000 38.000000"
 preserveAspectRatio="xMidYMid meet">

<g transform="translate(0.000000,38.000000) scale(0.100000,-0.100000)"
fill="#000000" stroke="none">
<path d="M272 186 l-33 -24 81 0 c68 0 81 2 76 15 -3 8 -6 19 -6 24 0 20 -86
9 -118 -15z"/>
<path d="M433 185 c-11 -24 -10 -25 20 -25 24 0 35 6 44 25 11 24 10 25 -20
25 -24 0 -35 -6 -44 -25z"/>
<path d="M517 185 l-18 -25 36 0 c20 0 35 5 35 12 0 9 3 9 12 0 15 -15 72 -16
63 -2 -3 6 1 13 9 16 35 14 12 24 -51 24 -61 -1 -70 -3 -86 -25z m90 9 c-3 -3
-12 -4 -19 -1 -8 3 -5 6 6 6 11 1 17 -2 13 -5z"/>
<path d="M692 197 c-26 -34 -23 -35 59 -35 70 0 78 1 62 13 -17 13 -17 14 7
23 20 8 10 10 -47 10 -43 0 -76 -4 -81 -11z"/>
<path d="M873 198 c-25 -32 -24 -38 5 -38 21 0 35 8 46 25 16 25 16 25 -13 25
-15 0 -33 -6 -38 -12z"/>
<path d="M952 198 c-28 -28 -13 -38 52 -38 36 0 67 3 70 8 2 4 -14 6 -36 4
-61 -6 -45 21 18 29 46 6 45 6 -21 7 -44 1 -76 -3 -83 -10z"/>
<path d="M1112 185 c-10 -22 -10 -23 69 -23 70 0 78 2 62 13 -17 13 -17 14 7
23 19 7 8 10 -51 10 -70 0 -78 -2 -87 -23z"/>
<path d="M1300 200 c0 -5 17 -13 38 -17 l37 -8 -45 -6 c-44 -6 -44 -6 15 -7
76 -2 106 13 49 25 l-39 8 45 6 c40 5 36 6 -27 7 -41 1 -73 -2 -73 -8z"/>
</g>
</svg>
