<?xml version="1.0" standalone="no"?>
<!DOCTYPE svg PUBLIC "-//W3C//DTD SVG 20010904//EN"
 "http://www.w3.org/TR/2001/REC-SVG-20010904/DTD/svg10.dtd">
<svg version="1.0" xmlns="http://www.w3.org/2000/svg"
 width="129.000000pt" height="129.000000pt" viewBox="0 0 129.000000 129.000000"
 preserveAspectRatio="xMidYMid meet">

<g transform="translate(0.000000,129.000000) scale(0.100000,-0.100000)"
fill="#000000" stroke="none">
<path d="M245 720 c-4 -6 -19 -48 -35 -95 l-29 -85 25 0 c13 0 24 5 24 10 0 6
7 10 15 10 8 0 15 -4 15 -10 0 -5 12 -10 26 -10 l25 0 -6 83 c-4 45 -8 88 -10
95 -5 14 -41 16 -50 2z m15 -100 c0 -11 -4 -20 -9 -20 -5 0 -7 9 -4 20 3 11 7
20 9 20 2 0 4 -9 4 -20z"/>
<path d="M347 698 c-4 -18 -9 -61 -13 -95 -6 -59 -5 -63 14 -63 25 0 29 10 37
109 7 77 7 81 -13 81 -15 0 -21 -8 -25 -32z"/>
<path d="M417 723 c-3 -5 -8 -39 -11 -78 -4 -38 -10 -78 -12 -87 -4 -14 1 -18
20 -18 22 0 26 4 26 31 0 17 4 28 10 24 6 -3 10 -17 10 -31 0 -18 5 -24 23
-24 20 0 22 4 19 41 -3 22 1 46 7 52 6 6 11 26 11 44 0 27 -5 35 -26 43 -30
12 -71 13 -77 3z m55 -65 c-6 -6 -15 -9 -18 -5 -4 3 -4 14 0 23 5 13 9 15 18
6 9 -9 9 -15 0 -24z"/>
<path d="M549 728 c-1 -2 -7 -45 -13 -95 l-12 -93 23 0 c18 0 23 6 23 25 0 31
17 33 22 3 2 -16 11 -24 30 -26 l26 -3 -15 50 c-14 48 -13 53 6 85 12 18 21
38 21 45 0 22 -37 10 -50 -16 l-14 -28 -4 28 c-2 19 -9 27 -23 27 -10 0 -20
-1 -20 -2z"/>
<path d="M687 723 c-3 -5 -8 -39 -12 -78 -4 -38 -9 -78 -11 -87 -4 -14 1 -18
19 -18 22 0 25 5 31 53 4 28 9 71 12 95 6 38 4 42 -14 42 -12 0 -23 -3 -25 -7z"/>
<path d="M761 711 c-12 -12 -21 -41 -26 -82 -7 -58 -6 -64 15 -81 15 -12 30
-16 44 -12 47 14 62 47 26 57 -11 3 -20 1 -20 -4 0 -5 -4 -9 -10 -9 -12 0 -12
66 -1 94 5 14 10 16 15 8 12 -20 46 -14 46 8 0 38 -58 52 -89 21z"/>
<path d="M879 728 c0 -2 -6 -45 -13 -95 l-12 -93 23 0 c18 0 23 6 23 25 0 14
4 25 9 25 5 0 12 -11 15 -25 5 -18 13 -25 30 -25 24 0 24 0 11 51 -13 49 -13
53 11 90 30 47 30 49 1 49 -16 0 -28 -9 -37 -27 l-14 -28 -4 28 c-2 19 -9 27
-23 27 -10 0 -19 -1 -20 -2z"/>
<path d="M1032 714 c-30 -21 -29 -64 3 -94 33 -31 32 -41 -5 -33 -26 5 -30 3
-30 -16 0 -39 54 -46 93 -13 25 22 21 48 -13 83 -16 18 -27 36 -23 42 5 8 8 7
11 -1 5 -17 52 -15 52 2 0 20 -28 46 -48 46 -10 0 -28 -7 -40 -16z"/>
</g>
</svg>
